<svg width="190" height="50" viewBox="0 0 190 50" fill="none" xmlns="http://www.w3.org/2000/svg">
<path d="M26.867 13.4582H18.9748C18.9188 12.9037 18.7696 12.4007 18.527 11.9491C18.2938 11.4976 17.9673 11.1095 17.5475 10.7847C17.137 10.452 16.6379 10.1985 16.0502 10.0242C15.4625 9.84205 14.7955 9.75095 14.0492 9.75095C12.7432 9.75095 11.6377 10.0203 10.7328 10.5589C9.83724 11.0976 9.15623 11.8699 8.68979 12.876C8.23268 13.882 8.00412 15.09 8.00412 16.5C8.00412 17.9892 8.23734 19.2369 8.70379 20.2429C9.17955 21.241 9.86522 21.9935 10.7608 22.5005C11.6564 22.9995 12.7338 23.249 13.9932 23.249C14.7115 23.249 15.3552 23.1738 15.9243 23.0233C16.4933 22.8649 16.9878 22.6391 17.4076 22.346C17.8274 22.0529 18.1679 21.7004 18.4291 21.2885C18.6996 20.8687 18.8815 20.3973 18.9748 19.8745L26.867 19.9221C26.7737 20.9518 26.4332 22.0014 25.8455 23.0708C25.2578 24.1323 24.4228 25.1145 23.3407 26.0176C22.2679 26.9127 20.9385 27.6336 19.3526 28.1801C17.7667 28.7267 15.9243 29 13.8253 29C11.1946 29 8.83439 28.5208 6.74473 27.5623C4.66441 26.6038 3.01787 25.1938 1.80513 23.3322C0.601709 21.4707 0 19.1933 0 16.5C0 13.7909 0.615702 11.5095 1.84711 9.65589C3.07851 7.79436 4.73904 6.38831 6.82869 5.43774C8.91835 4.47925 11.2506 4 13.8253 4C15.6351 4 17.3003 4.20992 18.8209 4.62975C20.3415 5.04959 21.6755 5.6635 22.8229 6.47148C23.9704 7.27155 24.8939 8.25776 25.5936 9.43013C26.2933 10.6025 26.7177 11.9452 26.867 13.4582Z" fill="#FF4806"/>
<path d="M30.3968 28.6673V4.3327H42.7668C44.8938 4.3327 46.7549 4.66144 48.3501 5.31892C49.9453 5.97639 51.186 6.923 52.0723 8.15875C52.9585 9.39449 53.4016 10.8758 53.4016 12.6027C53.4016 14.3454 52.9445 15.8148 52.0303 17.0109C51.1254 18.2071 49.852 19.1101 48.2102 19.7201C46.5776 20.33 44.6699 20.635 42.4869 20.635H35.0985V15.5019H40.9197C41.8339 15.5019 42.6129 15.4068 43.2566 15.2167C43.9096 15.0187 44.4087 14.7058 44.7538 14.278C45.1083 13.8503 45.2856 13.2918 45.2856 12.6027C45.2856 11.9056 45.1083 11.3392 44.7538 10.9035C44.4087 10.4599 43.9096 10.1351 43.2566 9.92918C42.6129 9.7153 41.8339 9.60836 40.9197 9.60836H38.177V28.6673H30.3968ZM47.1887 17.4981L54.3532 28.6673H45.9013L38.9047 17.4981H47.1887Z" fill="#FF4806"/>
<path d="M56.718 28.6673V4.3327H77.372V9.65589H64.4983V13.8384H76.3085V19.1616H64.4983V23.3441H77.3161V28.6673H56.718Z" fill="#FF4806"/>
<path d="M88.6751 28.6673H80.2791L89.7385 4.3327H100.373L109.833 28.6673H101.437L95.1679 11.0342H94.944L88.6751 28.6673ZM87.1078 19.0665H102.892V24.0095H87.1078V19.0665Z" fill="#FF4806"/>
<path d="M108.192 9.65589V4.3327H133.1V9.65589H124.48V28.6673H116.812V9.65589H108.192Z" fill="white"/>
<path d="M166.044 28.6673V4.3327H178.414C180.541 4.3327 182.402 4.66144 183.997 5.31892C185.592 5.97639 186.833 6.923 187.719 8.15875C188.605 9.39449 189.048 10.8758 189.048 12.6027C189.048 14.3454 188.591 15.8148 187.677 17.0109C186.772 18.2071 185.499 19.1101 183.857 19.7201C182.224 20.33 180.317 20.635 178.134 20.635H170.745V15.5019H176.567C177.481 15.5019 178.26 15.4068 178.903 15.2167C179.556 15.0187 180.055 14.7058 180.401 14.278C180.755 13.8503 180.932 13.2918 180.932 12.6027C180.932 11.9056 180.755 11.3392 180.401 10.9035C180.055 10.4599 179.556 10.1351 178.903 9.92918C178.26 9.7153 177.481 9.60836 176.567 9.60836H173.824V28.6673H166.044ZM182.835 17.4981L190 28.6673H181.548L174.551 17.4981H182.835Z" fill="white"/>
<path d="M151.556 27C141.556 30.5 146.9 41.3 164.5 34.5C182.1 27.7 193 40.5 177 42.5" stroke="white" stroke-width="3"/>
<path d="M168.688 43.339L177.035 37.1431L178.227 47.4692L168.688 43.339Z" fill="white"/>
<path fill-rule="evenodd" clip-rule="evenodd" d="M136.786 0.00103311C136.968 0.00326409 137.144 0.0593596 137.294 0.162234C137.444 0.265108 137.56 0.410145 137.627 0.579024C138.178 1.95835 139.149 3.07752 140.203 3.85185C141.163 4.5587 142.113 4.92193 142.786 4.99065C144.807 3.75503 147.131 3.10316 149.499 3.10697C151.867 3.10316 154.19 3.75503 156.212 4.99065C156.885 4.92193 157.836 4.5587 158.797 3.85185C159.851 3.07874 160.823 1.95835 161.373 0.579024C161.44 0.409901 161.556 0.264616 161.706 0.161554C161.856 0.0584928 162.033 0.00228881 162.214 5.53131e-05C162.396 -0.00217818 162.574 0.0496592 162.727 0.149007C162.879 0.248355 162.998 0.390747 163.07 0.558162C164.968 4.99925 163.676 9.61336 161.748 11.929C162.192 13.2584 162.418 14.6514 162.416 16.0535C162.416 23.2041 156.633 29 149.499 29C142.364 29 136.582 23.2041 136.582 16.0535C136.582 14.6103 136.817 13.2224 137.251 11.9265C135.324 9.60967 134.032 4.99679 135.93 0.558162C136.002 0.391097 136.122 0.249127 136.274 0.150184C136.426 0.0512416 136.605 -0.000233826 136.786 0.00226025V0.00103311ZM146.146 10.8755C145.882 10.971 145.602 11.0127 145.322 10.9982C145.042 10.9837 144.768 10.9132 144.515 10.7909C144.263 10.6687 144.038 10.497 143.853 10.2861C143.668 10.0753 143.527 9.82939 143.438 9.563C143.358 9.33259 143.189 9.14369 142.97 9.03785C142.75 8.932 142.498 8.91789 142.268 8.99862C142.038 9.07934 141.849 9.24829 141.743 9.46829C141.638 9.6883 141.623 9.94134 141.704 10.1717C141.872 10.6662 142.137 11.1221 142.482 11.5131C142.828 11.9041 143.248 12.2223 143.717 12.4494C144.187 12.6765 144.696 12.8078 145.217 12.8359C145.738 12.8639 146.259 12.7881 146.75 12.6127C146.98 12.532 147.169 12.3631 147.275 12.143C147.381 11.923 147.395 11.67 147.315 11.4396C147.234 11.2092 147.066 11.0203 146.846 10.9144C146.627 10.8086 146.479 10.875 146.479 10.875L146.146 10.8755ZM151.644 11.9081C151.903 11.4548 152.25 11.0576 152.664 10.7395C153.077 10.4215 153.55 10.1889 154.054 10.0554C154.558 9.9218 155.084 9.88989 155.6 9.96147C156.117 10.0331 156.614 10.2067 157.063 10.4724C157.273 10.5954 157.427 10.7972 157.488 11.0333C157.55 11.2694 157.516 11.5205 157.394 11.7314C157.271 11.9423 157.07 12.0957 156.834 12.1579C156.598 12.22 156.348 12.1858 156.137 12.0628C155.897 11.919 155.63 11.8248 155.352 11.7859C155.075 11.747 154.792 11.764 154.522 11.8361C154.251 11.9081 153.997 12.0336 153.775 12.2053C153.554 12.377 153.369 12.5914 153.231 12.8359C153.108 13.0468 152.907 13.2002 152.671 13.2623C152.435 13.3244 152.185 13.2902 151.975 13.1672C151.764 13.0442 151.611 12.8424 151.549 12.6063C151.487 12.3702 151.521 12.119 151.644 11.9081ZM149.388 21.7501C150.283 21.7653 151.175 21.6472 152.036 21.3997C152.799 21.1711 153.551 20.8025 154.027 20.2432C154.186 20.0574 154.263 19.8164 154.244 19.573C154.225 19.3296 154.11 19.1039 153.925 18.9455C153.739 18.7871 153.499 18.709 153.256 18.7283C153.013 18.7476 152.788 18.8629 152.63 19.0486C152.486 19.2176 152.13 19.4506 151.509 19.6365C150.826 19.8304 150.118 19.9224 149.408 19.9094C147.814 19.8921 146.636 19.4129 146.149 18.9167C145.977 18.7523 145.747 18.6613 145.51 18.6629C145.272 18.6645 145.044 18.7586 144.874 18.9254C144.703 19.0922 144.605 19.3186 144.598 19.557C144.591 19.7954 144.677 20.0271 144.837 20.2033C145.805 21.1956 147.554 21.7301 149.388 21.7501ZM145.03 14.2127C145.395 14.2127 145.745 14.3582 146.004 14.6171C146.262 14.876 146.407 15.2271 146.407 15.5933C146.407 15.9594 146.262 16.3106 146.004 16.5695C145.745 16.8284 145.395 16.9738 145.03 16.9738C144.664 16.9738 144.314 16.8284 144.056 16.5695C143.798 16.3106 143.652 15.9594 143.652 15.5933C143.652 15.2271 143.798 14.876 144.056 14.6171C144.314 14.3582 144.664 14.2127 145.03 14.2127ZM154.213 14.2127C154.578 14.2127 154.928 14.3582 155.187 14.6171C155.445 14.876 155.59 15.2271 155.59 15.5933C155.59 15.9594 155.445 16.3106 155.187 16.5695C154.928 16.8284 154.578 16.9738 154.213 16.9738C153.847 16.9738 153.497 16.8284 153.239 16.5695C152.98 16.3106 152.835 15.9594 152.835 15.5933C152.835 15.2271 152.98 14.876 153.239 14.6171C153.497 14.3582 153.847 14.2127 154.213 14.2127Z" fill="white"/>
</svg>
