<svg width="100" height="100" viewBox="0 0 100 100" fill="none" xmlns="http://www.w3.org/2000/svg">
<path fill-rule="evenodd" clip-rule="evenodd" d="M12.235 7.00303C12.767 7.00957 13.2851 7.17399 13.7239 7.47551C14.1627 7.77704 14.5025 8.20215 14.7004 8.69714C16.3153 12.74 19.1612 16.0203 22.251 18.2899C25.0646 20.3617 27.8494 21.4264 29.8196 21.6278C35.746 18.0061 42.5554 16.0955 49.4965 16.1066C56.4376 16.0955 63.247 18.0061 69.1734 21.6278C71.1472 21.4264 73.932 20.3617 76.7491 18.2899C79.839 16.0239 82.6884 12.74 84.2998 8.69714C84.4973 8.20143 84.8371 7.7756 85.2761 7.47352C85.7152 7.17144 86.2338 7.00671 86.7663 7.00016C87.2989 6.99362 87.8214 7.14555 88.2677 7.43674C88.714 7.72794 89.0641 8.14529 89.2737 8.63599C94.8362 21.653 91.0501 35.1771 85.3979 41.9643C86.7005 45.8609 87.3622 49.9438 87.3573 54.0533C87.3573 75.0121 70.4079 92 49.4965 92C28.5851 92 11.6356 75.0121 11.6356 54.0533C11.6356 49.8234 12.3247 45.7554 13.5987 41.9571C7.95004 35.1663 4.16396 21.6458 9.72645 8.63599C9.93709 8.14632 10.2878 7.7302 10.7343 7.4402C11.1808 7.15019 11.703 6.99931 12.235 7.00662V7.00303ZM39.6681 38.8763C38.8951 39.1564 38.0743 39.2787 37.2537 39.2362C36.4332 39.1936 35.6295 38.9871 34.8901 38.6286C34.1506 38.2702 33.4903 37.7672 32.948 37.1491C32.4056 36.531 31.9922 35.8103 31.732 35.0295C31.4965 34.3541 31.0028 33.8005 30.3596 33.4902C29.7163 33.18 28.9763 33.1387 28.3022 33.3753C27.628 33.6119 27.0751 34.1071 26.765 34.7519C26.4549 35.3967 26.413 36.1384 26.6485 36.8137C27.142 38.2629 27.9178 39.5993 28.9308 40.7453C29.9439 41.8913 31.1742 42.8241 32.5502 43.4896C33.9262 44.1552 35.4207 44.5402 36.9468 44.6224C38.473 44.7046 40.0005 44.4822 41.4408 43.9683C42.1149 43.7317 42.6678 43.2365 42.9779 42.5917C43.2881 41.9469 43.33 41.2052 43.0944 40.5299C42.8589 39.8545 42.3652 39.3008 41.722 38.9906C41.0787 38.6804 40.6458 38.875 40.6458 38.875L39.6681 38.8763ZM55.7839 41.9032C56.5442 40.5744 57.5601 39.4101 58.7728 38.4779C59.9855 37.5457 61.3708 36.8641 62.8484 36.4726C64.3259 36.0811 65.8663 35.9876 67.3802 36.1974C68.8941 36.4072 70.3514 36.9162 71.6675 37.6949C72.2843 38.0555 72.7328 38.6468 72.9146 39.3389C73.0963 40.031 72.9962 40.7671 72.6365 41.3852C72.2767 42.0034 71.6867 42.453 70.9961 42.6351C70.3056 42.8172 69.5712 42.717 68.9545 42.3564C68.2491 41.9349 67.4668 41.659 66.6535 41.5449C65.8403 41.4308 65.0124 41.4808 64.2187 41.6919C63.425 41.903 62.6814 42.271 62.0316 42.7742C61.3818 43.2775 60.8389 43.9058 60.4349 44.6224C60.0751 45.2405 59.4851 45.6901 58.7945 45.8723C58.104 46.0544 57.3696 45.9541 56.7529 45.5935C56.1361 45.2329 55.6875 44.6416 55.5058 43.9495C55.3241 43.2574 55.4241 42.5213 55.7839 41.9032ZM49.1703 70.7502C51.7945 70.7947 54.4108 70.4486 56.9336 69.7232C59.1696 69.0533 61.3742 67.973 62.7701 66.3335C63.2334 65.789 63.4619 65.0824 63.4054 64.3691C63.3489 63.6558 63.012 62.9942 62.4688 62.5299C61.9256 62.0656 61.2206 61.8366 60.5089 61.8933C59.7972 61.95 59.1371 62.2877 58.6738 62.8322C58.2521 63.3276 57.2075 64.0104 55.3891 64.5554C53.3861 65.1237 51.3104 65.3932 49.229 65.3552C44.5568 65.3044 41.1052 63.8999 39.6783 62.4456C39.1733 61.9636 38.5013 61.6968 37.8039 61.7016C37.1065 61.7063 36.4382 61.9822 35.9397 62.471C35.4412 62.9599 35.1515 63.6236 35.1316 64.3223C35.1117 65.021 35.3632 65.7001 35.833 66.2166C38.6689 69.1251 43.7948 70.6917 49.1703 70.7502ZM36.3977 48.658C37.4685 48.658 38.4954 49.0844 39.2525 49.8432C40.0097 50.6021 40.435 51.6313 40.435 52.7045C40.435 53.7777 40.0097 54.8069 39.2525 55.5658C38.4954 56.3246 37.4685 56.7509 36.3977 56.7509C35.327 56.7509 34.3001 56.3246 33.5429 55.5658C32.7858 54.8069 32.3604 53.7777 32.3604 52.7045C32.3604 51.6313 32.7858 50.6021 33.5429 49.8432C34.3001 49.0844 35.327 48.658 36.3977 48.658ZM63.313 48.658C64.3838 48.658 65.4107 49.0844 66.1678 49.8432C66.9249 50.6021 67.3503 51.6313 67.3503 52.7045C67.3503 53.7777 66.9249 54.8069 66.1678 55.5658C65.4107 56.3246 64.3838 56.7509 63.313 56.7509C62.2423 56.7509 61.2154 56.3246 60.4582 55.5658C59.7011 54.8069 59.2757 53.7777 59.2757 52.7045C59.2757 51.6313 59.7011 50.6021 60.4582 49.8432C61.2154 49.0844 62.2423 48.658 63.313 48.658Z" fill="#FF4806"/>
</svg>
